<?xml version="1.0"?>
<svg xmlns="http://www.w3.org/2000/svg" xmlns:xlink="http://www.w3.org/1999/xlink" xmlns:svgjs="http://svgjs.com/svgjs" version="1.1" width="512" height="512" x="0" y="0" viewBox="0 0 54 59" style="enable-background:new 0 0 512 512" xml:space="preserve" class=""><g><g xmlns="http://www.w3.org/2000/svg" id="Page-1" fill="none" fill-rule="evenodd"><g id="031---Microphone" fill-rule="nonzero" transform="translate(0 -1)"><path id="Shape" d="m53 19c-.5522847 0-1-.4477153-1-1 .0194067-5.5795082-1.8523663-11.00095241-5.31-15.38-.1655394-.20909333-.2407002-.4756479-.2087773-.74041996.0319229-.26477205.1682844-.50582393.3787773-.66958004.2090933-.16553938.4756479-.24070017.74042-.20877729.264772.03192287.5058239.16828443.66958.37877729 3.7313752 4.73433284 5.7509002 10.5920127 5.73 16.62 0 .5522847-.4477153 1-1 1z" fill="#fac176" data-original="#fac176" style="" class=""/><path id="Shape" d="m1 19c-.55228475 0-1-.4477153-1-1-.02041918-6.0295743 2.00293511-11.88813676 5.74-16.62.3404661-.43210332.96601375-.50806268 1.4-.17.21049286.16375611.34685442.40480799.37877729.66958004.03192288.26477206-.04323791.53132663-.20877729.74041996-3.45482867 4.38058091-5.32625316 9.8010157-5.31 15.38 0 .5522847-.44771525 1-1 1z" fill="#fac176" data-original="#fac176" style="" class=""/><path id="Shape" d="m49 19c-.5522847 0-1-.4477153-1-1 .0130004-4.5988918-1.4992372-9.07230172-4.3-12.72-.2450693-.27986372-.314535-.67263158-.180324-1.01957552.1342109-.34694395.4499135-.59071427.8195237-.63279683.3696103-.04208256.7320318.12447888.9408003.43237235 3.0737223 3.99571479 4.7338903 8.8988382 4.72 13.94 0 .5522847-.4477153 1-1 1z" fill="#f18d46" data-original="#f18d46" style="" class=""/><path id="Shape" d="m5 19c-.55228475 0-1-.4477153-1-1-.01394606-5.0381106 1.64634599-9.93808268 4.72-13.93.34807056-.39748884.94529833-.45561937 1.3634877-.13271363.4181894.32290574.513025.91541429.2165123 1.35271363-2.7986677 3.64498499-4.31078773 8.1145305-4.3 12.71 0 .5522847-.44771525 1-1 1z" fill="#f18d46" data-original="#f18d46" style="" class=""/><path id="Shape" d="m45 19c-.5522847 0-1-.4477153-1-1 .0152809-3.7213443-1.2091343-7.3418132-3.48-10.29-.2450693-.27986372-.314535-.67263158-.180324-1.01957552.1342109-.34694395.4499135-.59071427.8195237-.63279683.3696103-.04208256.7320318.12447888.9408003.43237235 2.5397581 3.29837627 3.9116194 7.3471257 3.9 11.51 0 .5522847-.4477153 1-1 1z" fill="#fac176" data-original="#fac176" style="" class=""/><path id="Shape" d="m9 19c-.55228475 0-1-.4477153-1-1-.00620123-4.1603535 1.3612239-8.20638516 3.89-11.51.217932-.28581247.5717886-.43364874.9282755-.38782032s.6614451.2783591.8.61c.1385549.33164089.0896565.71200785-.1282755.99782032-2.2676772 2.9505187-3.49484297 6.5687238-3.49 10.29 0 .2652165-.10535684.5195704-.29289322.7071068s-.44189029.2928932-.70710678.2928932z" fill="#fac176" data-original="#fac176" style="" class=""/><path id="Shape" d="m41 18v12h-28v-12c0-.34 0-.67 0-1 .0851632-1.371742.3854979-2.7215609.89-4 2.0772457-5.4110039 7.2739744-8.98252055 13.07-8.98252055s10.9927543 3.57151665 13.07 8.98252055c.5319245 1.2739442.8592914 2.6239109.97 4z" fill="#bdc3c7" data-original="#bdc3c7" style="" class=""/><path id="Shape" d="m37 58v2h-20v-2c0-1.1045695.8954305-2 2-2h16c1.1045695 0 2 .8954305 2 2z" fill="#3f1e5b" data-original="#2980ba" style="" class=""/><path id="Rectangle-path" d="m25 52h4v4h-4z" fill="#95a5a5" data-original="#95a5a5" style="" class=""/><path id="Shape" d="m31 47.73v3.27c0 .5522847-.4477153 1-1 1h-6c-.5522847 0-1-.4477153-1-1v-3.27c.9896688.1813347 1.993857.2717116 3 .27h2c1.006143.0017116 2.0103312-.0886653 3-.27z" fill="#f0c419" data-original="#f0c419" style="" class=""/><path id="Shape" d="m45 31c-.0015495 8.2303927-5.8987756 15.2775779-14 16.73-.9896688.1813347-1.993857.2717116-3 .27h-2c-1.006143.0017116-2.0103312-.0886653-3-.27-8.1012244-1.4524221-13.99845047-8.4996073-14-16.73 0-1.1045695.8954305-2 2-2s2 .8954305 2 2c0 7.1797017 5.8202983 13 13 13h2c3.4478144 0 6.7544152-1.3696389 9.1923882-3.8076118 2.4379729-2.437973 3.8076118-5.7445738 3.8076118-9.1923882 0-1.1045695.8954305-2 2-2s2 .8954305 2 2z" fill="#3f1e5b" data-original="#2980ba" style="" class=""/><g fill="#7f8c8d"><path id="Shape" d="m20 18c0 .5522847-.4477153 1-1 1h-6v-1c0-.34 0-.67 0-1h6c.5522847 0 1 .4477153 1 1z" fill="#7f8c8d" data-original="#7f8c8d" style="" class=""/><path id="Shape" d="m24 19h-1c-.5522847 0-1-.4477153-1-1s.4477153-1 1-1h1c.5522847 0 1 .4477153 1 1s-.4477153 1-1 1z" fill="#7f8c8d" data-original="#7f8c8d" style="" class=""/><path id="Shape" d="m20 22c0 .5522847-.4477153 1-1 1h-6v-2h6c.5522847 0 1 .4477153 1 1z" fill="#7f8c8d" data-original="#7f8c8d" style="" class=""/><path id="Shape" d="m24 23h-1c-.5522847 0-1-.4477153-1-1s.4477153-1 1-1h1c.5522847 0 1 .4477153 1 1s-.4477153 1-1 1z" fill="#7f8c8d" data-original="#7f8c8d" style="" class=""/><path id="Shape" d="m41 18v1h-11c-.5522847 0-1-.4477153-1-1s.4477153-1 1-1h11z" fill="#7f8c8d" data-original="#7f8c8d" style="" class=""/><path id="Shape" d="m20 14c0 .5522847-.4477153 1-1 1h-5.68c.1502907-.6817052.3542599-1.3504568.61-2h5.07c.5522847 0 1 .4477153 1 1z" fill="#7f8c8d" data-original="#7f8c8d" style="" class=""/><path id="Shape" d="m24 15h-1c-.5522847 0-1-.4477153-1-1s.4477153-1 1-1h1c.5522847 0 1 .4477153 1 1s-.4477153 1-1 1z" fill="#7f8c8d" data-original="#7f8c8d" style="" class=""/><path id="Shape" d="m40.68 15h-10.68c-.5522847 0-1-.4477153-1-1s.4477153-1 1-1h10.07c.2557401.6495432.4597093 1.3182948.61 2z" fill="#7f8c8d" data-original="#7f8c8d" style="" class=""/><path id="Shape" d="m41 21v2h-11c-.5522847 0-1-.4477153-1-1s.4477153-1 1-1z" fill="#7f8c8d" data-original="#7f8c8d" style="" class=""/><path id="Shape" d="m20 26c0 .5522847-.4477153 1-1 1h-6v-2h6c.5522847 0 1 .4477153 1 1z" fill="#7f8c8d" data-original="#7f8c8d" style="" class=""/><path id="Shape" d="m24 27h-1c-.5522847 0-1-.4477153-1-1s.4477153-1 1-1h1c.5522847 0 1 .4477153 1 1s-.4477153 1-1 1z" fill="#7f8c8d" data-original="#7f8c8d" style="" class=""/><path id="Shape" d="m41 25v2h-11c-.5522847 0-1-.4477153-1-1s.4477153-1 1-1z" fill="#7f8c8d" data-original="#7f8c8d" style="" class=""/></g><path id="Shape" d="m41 30v1c0 3.4478144-1.3696389 6.7544152-3.8076118 9.1923882-2.437973 2.4379729-5.7445738 3.8076118-9.1923882 3.8076118h-2c-7.1797017 0-13-5.8202983-13-13v-1z" fill="#7b40c8" data-original="#3b97d3" style="" class=""/></g></g></g></svg>
