<?xml version="1.0"?>
<svg xmlns="http://www.w3.org/2000/svg" xmlns:xlink="http://www.w3.org/1999/xlink" xmlns:svgjs="http://svgjs.com/svgjs" version="1.1" width="512" height="512" x="0" y="0" viewBox="0 0 512 512" style="enable-background:new 0 0 512 512" xml:space="preserve" class=""><g><g xmlns="http://www.w3.org/2000/svg"><path d="m256 88a168 168 0 1 0 168 168 168 168 0 0 0 -168-168zm0 312a144 144 0 1 1 144-144 144 144 0 0 1 -144 144z" fill="#57a4ff" data-original="#57a4ff" style="" class=""/><path d="m256 176a24.006 24.006 0 0 0 -24 24v48a24 24 0 0 0 48 0v-48a24 24 0 0 0 -24-24z" fill="#57a4ff" data-original="#57a4ff" style="" class=""/><g fill="#004fac"><path d="m256 104c-83.81 0-152 68.19-152 152s68.19 152 152 152 152-68.19 152-152-68.19-152-152-152zm0 288c-74.99 0-136-61.01-136-136s61.01-136 136-136 136 61.01 136 136-61.01 136-136 136z" fill="#623f90" data-original="#004fac" style="" class=""/><path d="m256 80c-97.05 0-176 78.95-176 176s78.95 176 176 176 176-78.95 176-176-78.95-176-176-176zm0 336c-88.22 0-160-71.78-160-160s71.78-160 160-160 160 71.78 160 160-71.78 160-160 160z" fill="#623f90" data-original="#004fac" style="" class=""/><path d="m474.866 139.27a8 8 0 1 0 -14.112 7.541 232.412 232.412 0 0 1 0 218.378 8 8 0 1 0 14.112 7.541 248.416 248.416 0 0 0 0-233.46z" fill="#623f90" data-original="#004fac" style="" class=""/><path d="m446.615 154.328a8 8 0 0 0 -14.11 7.543 200.3 200.3 0 0 1 0 188.258 8 8 0 1 0 14.11 7.543 216.3 216.3 0 0 0 0-203.344z" fill="#623f90" data-original="#004fac" style="" class=""/><path d="m24.56 256a232.38 232.38 0 0 1 27.246-109.189 8 8 0 1 0 -14.112-7.541 248.416 248.416 0 0 0 0 233.46 8 8 0 1 0 14.112-7.541 232.38 232.38 0 0 1 -27.246-109.189z" fill="#623f90" data-original="#004fac" style="" class=""/><path d="m56.56 256c0-34.538 7.568-66.208 22.5-94.129a8 8 0 0 0 -14.11-7.543c-16.186 30.272-24.39 64.472-24.39 101.672s8.2 71.4 24.385 101.672a8 8 0 0 0 14.11-7.543c-14.927-27.921-22.495-59.591-22.495-94.129z" fill="#623f90" data-original="#004fac" style="" class=""/><path d="m256 280a32.036 32.036 0 0 0 32-32v-48a32 32 0 0 0 -64 0v48a32.036 32.036 0 0 0 32 32zm-16-80a16 16 0 0 1 32 0v48a16 16 0 0 1 -32 0z" fill="#623f90" data-original="#004fac" style="" class=""/><path d="m264 303.42v24.58h24a8 8 0 0 1 0 16h-64a8 8 0 0 1 0-16h24v-24.58a56.086 56.086 0 0 1 -48-55.42v-16a8 8 0 0 1 16 0v16a40 40 0 0 0 80 0v-16a8 8 0 0 1 16 0v16a56.086 56.086 0 0 1 -48 55.42z" fill="#623f90" data-original="#004fac" style="" class=""/></g></g></g></svg>
